<?xml version="1.0" standalone="no"?>
<!DOCTYPE svg PUBLIC "-//W3C//DTD SVG 20010904//EN"
 "http://www.w3.org/TR/2001/REC-SVG-20010904/DTD/svg10.dtd">
<svg version="1.0" xmlns="http://www.w3.org/2000/svg"
 width="212.000000pt" height="40.000000pt" viewBox="0 0 212.000000 40.000000"
 preserveAspectRatio="xMidYMid meet">

<g transform="translate(0.000000,40.000000) scale(0.100000,-0.100000)"
fill="#000000" stroke="none">
<path d="M1440 369 c-64 -27 -100 -85 -100 -161 0 -103 60 -168 154 -168 31 0
65 7 86 19 43 23 80 90 80 145 0 49 -35 122 -70 148 -30 22 -115 32 -150 17z
m95 -51 c36 -16 55 -57 55 -117 0 -69 -35 -111 -91 -111 -29 0 -47 7 -64 24
-51 51 -41 160 18 196 37 23 47 24 82 8z"/>
<path d="M30 205 l0 -167 94 4 c104 4 134 17 163 71 23 43 23 141 0 184 -29
54 -59 67 -163 71 l-94 4 0 -167z m163 104 c33 -15 47 -49 47 -110 0 -43 -5
-55 -30 -80 -25 -26 -36 -30 -72 -27 l-43 3 -3 99 c-1 55 0 106 2 113 6 16 66
17 99 2z"/>
<path d="M500 205 l0 -165 115 0 c85 0 115 3 115 13 -1 28 -18 36 -90 39 l-75
3 -3 42 -3 43 60 0 c42 0 61 4 61 13 0 26 -17 36 -65 39 l-50 3 0 40 0 40 71
3 c70 3 71 3 66 27 -4 25 -6 25 -103 25 l-99 0 0 -165z"/>
<path d="M920 205 l0 -165 30 0 c30 0 30 1 30 55 l0 55 35 0 c47 0 98 22 119
51 9 13 16 43 16 67 0 74 -47 102 -171 102 l-59 0 0 -165z m150 95 c41 -41 7
-104 -53 -98 -30 3 -32 6 -35 47 -2 24 -1 50 2 57 8 21 63 17 86 -6z"/>
<path d="M1830 346 c0 -23 5 -25 48 -28 l47 -3 3 -137 3 -138 29 0 30 0 0 140
0 140 55 0 c55 0 61 4 49 34 -5 13 -27 16 -135 16 l-129 0 0 -24z"/>
</g>
</svg>
